<?xml version="1.0" standalone="no"?>
<!DOCTYPE svg PUBLIC "-//W3C//DTD SVG 20010904//EN"
 "http://www.w3.org/TR/2001/REC-SVG-20010904/DTD/svg10.dtd">
<svg version="1.0" xmlns="http://www.w3.org/2000/svg"
 width="500.000000pt" height="500.000000pt" viewBox="0 0 500.000000 500.000000"
 preserveAspectRatio="xMidYMid meet">
<metadata>
Created by potrace 1.11, written by Peter Selinger 2001-2013
</metadata>
<g transform="translate(0.000000,500.000000) scale(0.100000,-0.100000)"
fill="#000000" stroke="none">
<path d="M0 2500 l0 -2500 2500 0 2500 0 0 2500 0 2500 -2500 0 -2500 0 0
-2500z m2943 764 c148 -259 218 -371 223 -362 5 7 102 175 215 373 l206 360
128 3 c137 3 175 -7 175 -48 0 -18 -71 -144 -406 -718 -85 -145 -154 -267
-154 -272 0 -5 128 -232 285 -505 157 -273 285 -499 285 -501 0 -2 -73 -4
-163 -4 l-163 0 -204 355 c-113 195 -207 355 -210 355 -4 0 -98 -160 -211
-355 l-204 -355 -164 0 c-126 0 -162 3 -158 13 3 6 131 232 286 501 154 268
281 491 281 495 0 7 -141 252 -314 546 -49 83 -124 216 -168 297 -65 121 -77
151 -69 167 15 28 23 29 163 30 l127 1 214 -376z m-1883 359 c0 -5 -142 -567
-315 -1250 -173 -683 -315 -1244 -315 -1247 0 -3 -66 -6 -146 -6 -134 0 -145
1 -140 18 3 9 145 568 316 1242 170 674 312 1231 315 1238 3 9 42 12 145 12
77 0 140 -3 140 -7z m1240 -113 l0 -120 -337 -1 c-365 0 -391 -3 -427 -52 -20
-27 -21 -42 -24 -308 l-3 -279 366 0 365 0 0 -120 0 -120 -365 0 -365 0 0
-274 c0 -150 3 -288 6 -305 4 -17 19 -45 34 -61 l28 -30 361 0 361 0 0 -125 0
-125 -347 0 c-192 0 -374 4 -406 10 -118 19 -228 92 -285 189 l-27 46 -3 753
c-2 485 1 766 8 791 25 95 124 189 239 228 64 22 79 22 444 23 l377 0 0 -120z
m2640 113 c0 -5 -142 -567 -315 -1250 -173 -683 -315 -1244 -315 -1247 0 -3
-66 -6 -146 -6 -134 0 -145 1 -140 18 3 9 145 568 316 1242 170 674 312 1231
315 1238 3 9 42 12 145 12 77 0 140 -3 140 -7z"/>
</g>
</svg>
